{
  "accessors": [
    {
      "bufferView": 2,
      "componentType": 5126,
      "count": 2176,
      "max": [
        16.276121139526367,
        9.84228515625,
        5.794657230377197
      ],
      "min": [
        -16.276121139526367,
        -9.84228515625,
        -5.794657230377197
      ],
      "type": "VEC3"
    },
    {
      "bufferView": 2,
      "byteOffset": 26112,
      "componentType": 5126,
      "count": 2176,
      "max": [
        0.9974749684333801,
        0.9987481832504272,
        0.9999710321426392
      ],
      "min": [
        -0.9991784691810608,
        -0.9986966252326965,
        -0.9999755620956421
      ],
      "type": "VEC3"
    },
    {
      "bufferView": 3,
      "componentType": 5126,
      "count": 2176,
      "max": [
        0.9998130798339844,
        0.999738872051239,
        0.9992664456367493,
        1.0
      ],
      "min": [
        -0.8491301536560059,
        -0.9822502136230469,
        -0.9935163855552673,
        -1.0
      ],
      "type": "VEC4"
    },
    {
      "bufferView": 1,
      "componentType": 5126,
      "count": 2176,
      "max": [
        0.8906421065330505,
        0.9887290000915527
      ],
      "min": [
        0.02010144293308258,
        0.016925644129514694
      ],
      "type": "VEC2"
    },
    {
      "bufferView": 0,
      "componentType": 5125,
      "count": 11976,
      "type": "SCALAR"
    }
  ],
  "asset": {
    "extras": {
      "author": "GunZ3D (https://sketchfab.com/guns7909)",
      "license": "CC-BY-4.0 (http://creativecommons.org/licenses/by/4.0/)",
      "source": "https://sketchfab.com/3d-models/rock-b-38460b7cb398420f9a9cbe0bcc143f22",
      "title": "Rock B"
    },
    "generator": "Sketchfab-12.68.0",
    "version": "2.0"
  },
  "bufferViews": [
    {
      "buffer": 0,
      "byteLength": 47904,
      "name": "floatBufferViews",
      "target": 34963
    },
    {
      "buffer": 0,
      "byteLength": 17408,
      "byteOffset": 47904,
      "byteStride": 8,
      "name": "floatBufferViews",
      "target": 34962
    },
    {
      "buffer": 0,
      "byteLength": 52224,
      "byteOffset": 65312,
      "byteStride": 12,
      "name": "floatBufferViews",
      "target": 34962
    },
    {
      "buffer": 0,
      "byteLength": 34816,
      "byteOffset": 117536,
      "byteStride": 16,
      "name": "floatBufferViews",
      "target": 34962
    }
  ],
  "buffers": [
    {
      "byteLength": 152352,
      "uri": "scene.bin"
    }
  ],
  "images": [
    {
      "uri": "textures/Field_Rock_B_baseColor.png"
    },
    {
      "uri": "textures/Field_Rock_B_metallicRoughness.png"
    },
    {
      "uri": "textures/Field_Rock_B_normal.png"
    }
  ],
  "materials": [
    {
      "doubleSided": true,
      "name": "Field_Rock_B",
      "normalTexture": {
        "index": 2
      },
      "occlusionTexture": {
        "index": 1
      },
      "pbrMetallicRoughness": {
        "baseColorTexture": {
          "index": 0
        },
        "metallicRoughnessTexture": {
          "index": 1
        }
      }
    }
  ],
  "meshes": [
    {
      "name": "Object004_Field_Rock_B_0",
      "primitives": [
        {
          "attributes": {
            "NORMAL": 1,
            "POSITION": 0,
            "TANGENT": 2,
            "TEXCOORD_0": 3
          },
          "indices": 4,
          "material": 0,
          "mode": 4
        }
      ]
    }
  ],
  "nodes": [
    {
      "children": [
        1
      ],
      "matrix": [
        1.0,
        0.0,
        0.0,
        0.0,
        0.0,
        2.220446049250313e-16,
        -1.0,
        0.0,
        0.0,
        1.0,
        2.220446049250313e-16,
        0.0,
        0.0,
        0.0,
        0.0,
        1.0
      ],
      "name": "Sketchfab_model"
    },
    {
      "children": [
        2
      ],
      "matrix": [
        1.0,
        0.0,
        0.0,
        0.0,
        0.0,
        0.0,
        1.0,
        0.0,
        0.0,
        -1.0,
        0.0,
        0.0,
        0.0,
        0.0,
        0.0,
        1.0
      ],
      "name": "eacf3123467c49ca945f9fe322f88aaa.fbx"
    },
    {
      "children": [
        3
      ],
      "name": "RootNode"
    },
    {
      "children": [
        4
      ],
      "matrix": [
        1.0,
        0.0,
        0.0,
        0.0,
        0.0,
        2.220446049250313e-16,
        -1.0,
        0.0,
        0.0,
        1.0,
        2.220446049250313e-16,
        0.0,
        -4.984342098236084,
        -6.540378093719482,
        -2.6144394874572754,
        1.0
      ],
      "name": "Object004"
    },
    {
      "mesh": 0,
      "name": "Object004_Field_Rock_B_0"
    }
  ],
  "samplers": [
    {
      "magFilter": 9729,
      "minFilter": 9987,
      "wrapS": 10497,
      "wrapT": 10497
    }
  ],
  "scene": 0,
  "scenes": [
    {
      "name": "Sketchfab_Scene",
      "nodes": [
        0
      ]
    }
  ],
  "textures": [
    {
      "sampler": 0,
      "source": 0
    },
    {
      "sampler": 0,
      "source": 1
    },
    {
      "sampler": 0,
      "source": 2
    }
  ]
}
