{
  "accessors": [
    {
      "bufferView": 2,
      "componentType": 5126,
      "count": 2901,
      "max": [
        20.114397048950195,
        22.66781234741211,
        20.14735221862793
      ],
      "min": [
        -24.793739318847656,
        -1.2966077327728271,
        -20.670257568359375
      ],
      "type": "VEC3"
    },
    {
      "bufferView": 2,
      "byteOffset": 34812,
      "componentType": 5126,
      "count": 2901,
      "max": [
        0.9996867775917053,
        0.9999860525131226,
        0.9965752363204956
      ],
      "min": [
        -0.9995123744010925,
        -0.990222156047821,
        -0.9810511469841003
      ],
      "type": "VEC3"
    },
    {
      "bufferView": 3,
      "componentType": 5126,
      "count": 2901,
      "max": [
        0.9998379349708557,
        0.9983600974082947,
        0.9999616146087646,
        1.0
      ],
      "min": [
        -0.9999299049377441,
        -0.997579038143158,
        -0.999500036239624,
        -1.0
      ],
      "type": "VEC4"
    },
    {
      "bufferView": 3,
      "byteOffset": 46416,
      "componentType": 5126,
      "count": 2901,
      "max": [
        1.0,
        1.0,
        0.0,
        1.0
      ],
      "min": [
        0.0,
        0.0,
        0.0,
        1.0
      ],
      "type": "VEC4"
    },
    {
      "bufferView": 1,
      "componentType": 5126,
      "count": 2901,
      "max": [
        0.6922769546508789,
        0.9976961612701416
      ],
      "min": [
        0.002524733543395996,
        0.0033422112464904785
      ],
      "type": "VEC2"
    },
    {
      "bufferView": 1,
      "byteOffset": 23208,
      "componentType": 5126,
      "count": 2901,
      "max": [
        0.9950000047683716,
        0.991313099861145
      ],
      "min": [
        0.004999999888241291,
        0.004999999888241291
      ],
      "type": "VEC2"
    },
    {
      "bufferView": 0,
      "componentType": 5125,
      "count": 12039,
      "type": "SCALAR"
    }
  ],
  "asset": {
    "extras": {
      "author": "3D Environment Artist Shop (https://sketchfab.com/3d-artist-shop)",
      "license": "CC-BY-4.0 (http://creativecommons.org/licenses/by/4.0/)",
      "source": "https://sketchfab.com/3d-models/realistic-beech-fern-plant-games-film-adf1e8832cf74a8a94c98792fa1d9088",
      "title": "Realistic Beech Fern Plant | Games | Film"
    },
    "generator": "Sketchfab-13.42.0",
    "version": "2.0"
  },
  "bufferViews": [
    {
      "buffer": 0,
      "byteLength": 48156,
      "name": "floatBufferViews",
      "target": 34963
    },
    {
      "buffer": 0,
      "byteLength": 46416,
      "byteOffset": 48156,
      "byteStride": 8,
      "name": "floatBufferViews",
      "target": 34962
    },
    {
      "buffer": 0,
      "byteLength": 69624,
      "byteOffset": 94572,
      "byteStride": 12,
      "name": "floatBufferViews",
      "target": 34962
    },
    {
      "buffer": 0,
      "byteLength": 92832,
      "byteOffset": 164196,
      "byteStride": 16,
      "name": "floatBufferViews",
      "target": 34962
    }
  ],
  "buffers": [
    {
      "byteLength": 257028,
      "uri": "scene.bin"
    }
  ],
  "extensionsRequired": [
    "KHR_materials_pbrSpecularGlossiness"
  ],
  "extensionsUsed": [
    "KHR_materials_pbrSpecularGlossiness"
  ],
  "images": [
    {
      "uri": "textures/lambert1_diffuse.png"
    },
    {
      "uri": "textures/lambert1_specularGlossiness.png"
    },
    {
      "uri": "textures/lambert1_normal.jpeg"
    },
    {
      "uri": "textures/lambert1_occlusion.png"
    }
  ],
  "materials": [
    {
      "alphaMode": "BLEND",
      "doubleSided": true,
      "extensions": {
        "KHR_materials_pbrSpecularGlossiness": {
          "diffuseFactor": [
            1.0,
            1.0,
            1.0,
            1.0
          ],
          "diffuseTexture": {
            "index": 0
          },
          "glossinessFactor": 1.0,
          "specularFactor": [
            0.04055078893074161,
            0.04055078893074161,
            0.04055078893074161
          ],
          "specularGlossinessTexture": {
            "index": 1
          }
        }
      },
      "name": "lambert1",
      "normalTexture": {
        "index": 2
      },
      "occlusionTexture": {
        "index": 3,
        "strength": 0.833770590137656
      }
    }
  ],
  "meshes": [
    {
      "name": "_bkm8_Var2_LOD0_lambert1_0",
      "primitives": [
        {
          "attributes": {
            "COLOR_0": 3,
            "NORMAL": 1,
            "POSITION": 0,
            "TANGENT": 2,
            "TEXCOORD_0": 4,
            "TEXCOORD_1": 5
          },
          "indices": 6,
          "material": 0,
          "mode": 4
        }
      ]
    }
  ],
  "nodes": [
    {
      "children": [
        1
      ],
      "matrix": [
        2.179123878479004,
        0.0,
        0.0,
        0.0,
        0.0,
        4.838627006795724e-16,
        -2.179123878479004,
        0.0,
        0.0,
        2.179123878479004,
        4.838627006795724e-16,
        0.0,
        0.0,
        0.0,
        0.0,
        1.0
      ],
      "name": "Sketchfab_model"
    },
    {
      "children": [
        2
      ],
      "matrix": [
        0.009999999776482582,
        0.0,
        0.0,
        0.0,
        0.0,
        0.0,
        0.009999999776482582,
        0.0,
        0.0,
        -0.009999999776482582,
        0.0,
        0.0,
        0.0,
        0.0,
        0.0,
        1.0
      ],
      "name": "Beech Fern.fbx"
    },
    {
      "children": [
        3
      ],
      "name": "RootNode"
    },
    {
      "children": [
        4
      ],
      "name": "_bkm8_Var2_LOD0"
    },
    {
      "mesh": 0,
      "name": "_bkm8_Var2_LOD0_lambert1_0"
    }
  ],
  "samplers": [
    {
      "magFilter": 9729,
      "minFilter": 9987,
      "wrapS": 10497,
      "wrapT": 10497
    }
  ],
  "scene": 0,
  "scenes": [
    {
      "name": "Sketchfab_Scene",
      "nodes": [
        0
      ]
    }
  ],
  "textures": [
    {
      "sampler": 0,
      "source": 0
    },
    {
      "sampler": 0,
      "source": 1
    },
    {
      "sampler": 0,
      "source": 2
    },
    {
      "sampler": 0,
      "source": 3
    }
  ]
}
